# xmcd
#
# Track frame offsets:
#	150
#	7972
#	24092
#	43059
#	61267
#	83874
#	114596
#
# Disc length: 1978 seconds
#
# Revision: 0
# Processed by: cddbd v1.4PL0 Copyright (c) Steve Scherf et al.
# Submitted via: EasyCDDAExtractor 4.6.0.1
#
DISCID=4807b807
DTITLE=Sunstorm
DYEAR=1900
DGENRE=
TTITLE0=Sun Won't Go Down
TTITLE1=Automatic
TTITLE2=Small Town Soul
TTITLE3=Hesitation
TTITLE4=Back Around
TTITLE5=Desert Song
TTITLE6=On The Ground
EXTD=
EXTT0=
EXTT1=
EXTT2=
EXTT3=
EXTT4=
EXTT5=
EXTT6=
PLAYORDER=
